<?xml version="1.0" standalone="no"?>
<!DOCTYPE svg PUBLIC "-//W3C//DTD SVG 20010904//EN"
 "http://www.w3.org/TR/2001/REC-SVG-20010904/DTD/svg10.dtd">
<svg version="1.0" xmlns="http://www.w3.org/2000/svg"
 width="500.000000pt" height="500.000000pt" viewBox="0 0 500.000000 500.000000"
 preserveAspectRatio="xMidYMid meet">

<g transform="translate(0.000000,500.000000) scale(0.100000,-0.100000)"
fill="#000000" stroke="none">
<path d="M40 3820 l0 -130 205 0 205 0 0 -390 0 -390 220 0 220 0 0 390 0 390
200 0 200 0 0 130 0 130 -625 0 -625 0 0 -130z"/>
<path d="M3265 3580 c-132 -28 -226 -92 -266 -182 -20 -44 -24 -70 -24 -148 0
-84 3 -101 27 -146 68 -128 195 -184 423 -184 172 0 273 28 354 96 32 26 73
90 86 132 l6 22 -143 0 c-134 0 -144 -1 -156 -21 -35 -56 -164 -76 -242 -36
-50 25 -90 88 -90 142 0 45 40 117 77 138 72 41 194 30 244 -24 l27 -29 142 0
141 0 -6 23 c-15 49 -59 110 -103 142 -82 60 -147 77 -312 81 -80 1 -163 -1
-185 -6z"/>
<path d="M1030 3255 l0 -325 135 0 135 0 0 95 0 95 98 0 c113 -1 167 -11 194
-38 10 -10 29 -47 41 -83 l22 -64 260 -3 261 -2 30 52 30 53 205 3 206 2 27
-51 c16 -27 33 -52 40 -55 7 -3 69 -3 140 -2 l127 3 -206 323 -207 322 -126 0
-127 0 -202 -315 c-140 -219 -203 -310 -207 -298 -3 10 -8 36 -12 58 -10 57
-29 91 -64 112 -35 20 -37 29 -11 38 31 10 79 71 91 117 13 46 6 118 -16 160
-17 33 -65 70 -120 91 -72 28 -190 37 -470 37 l-274 0 0 -325z m583 142 c34
-22 36 -65 6 -93 -18 -17 -41 -19 -170 -22 l-149 -4 0 72 0 72 143 -3 c116 -3
148 -8 170 -22z m901 -129 l38 -68 -112 0 -112 0 20 33 c10 17 36 60 57 95
l37 63 17 -28 c10 -15 34 -58 55 -95z"/>
<path d="M3920 3255 l0 -325 135 0 135 0 0 53 0 54 83 55 82 55 139 -109 139
-108 174 0 c95 0 173 1 173 3 0 1 -101 74 -225 162 -123 88 -225 163 -225 167
0 4 102 76 226 160 l226 153 -176 3 -176 2 -217 -149 -218 -150 -3 149 -3 150
-134 0 -135 0 0 -325z"/>
<path fill="red" d="M3685 2830 c-82 -54 -87 -178 -9 -239 20 -16 41 -21 85 -21 51 0 63
4 94 31 80 70 64 188 -32 238 -34 18 -104 13 -138 -9z"/>
<path d="M660 2489 c-181 -47 -275 -177 -256 -354 11 -110 73 -198 174 -249
56 -29 161 -46 282 -46 223 0 351 57 418 184 24 46 27 62 27 151 0 89 -3 105
-27 151 -47 89 -128 144 -247 170 -98 20 -279 17 -371 -7z m290 -171 c50 -26
90 -89 90 -143 0 -54 -40 -117 -90 -143 -37 -19 -56 -23 -105 -19 -76 5 -117
26 -145 73 -44 70 -21 191 43 226 64 34 146 36 207 6z"/>
<path d="M1360 2175 l0 -325 135 0 135 0 0 215 c0 118 3 215 8 214 4 0 87 -97
185 -215 l177 -214 160 0 160 0 0 325 0 325 -135 0 -135 0 -2 -215 -3 -215
-180 215 -180 215 -162 0 -163 0 0 -325z"/>
<path fill="red" d="M2734 2189 c-109 -172 -203 -318 -207 -326 -7 -11 14 -13 129 -11
l138 3 31 52 30 53 205 0 206 0 29 -55 30 -55 137 0 138 0 -18 28 c-9 16 -102
162 -207 325 l-190 297 -126 0 -125 0 -200 -311z m383 28 l51 -92 -54 -3 c-30
-2 -79 -2 -109 0 l-54 3 52 92 c28 51 54 93 57 93 3 0 28 -42 57 -93z"/>
<path fill="red" d="M3620 2175 l0 -325 135 0 135 0 0 325 0 325 -135 0 -135 0 0 -325z"/>
<path fill="red" d="M3980 2176 l0 -326 135 0 135 0 0 96 0 96 124 -3 c146 -5 169 -16
200 -95 10 -27 22 -59 27 -71 8 -22 13 -23 135 -23 l126 0 -6 38 c-18 99 -36
142 -71 165 -19 12 -35 24 -34 27 0 3 19 19 42 35 58 42 84 116 69 193 -14 66
-42 107 -95 134 -87 44 -136 50 -469 55 l-318 5 0 -326z m553 153 c78 -21 84
-98 10 -118 -21 -6 -95 -11 -165 -11 l-128 0 0 70 0 70 123 0 c67 0 139 -5
160 -11z"/>
</g>
</svg>
