<?xml version="1.0" standalone="no"?>
<!DOCTYPE svg PUBLIC "-//W3C//DTD SVG 20010904//EN"
 "http://www.w3.org/TR/2001/REC-SVG-20010904/DTD/svg10.dtd">
<svg version="1.0" xmlns="http://www.w3.org/2000/svg"
 width="500.000000pt" height="209.000000pt" viewBox="0 0 500.000000 209.000000"
 preserveAspectRatio="xMidYMid meet">

<g transform="translate(0.000000,209.000000) scale(0.100000,-0.100000)"
fill="#000000" stroke="none">
<path d="M40 1965 l0 -125 205 0 205 0 0 -395 0 -395 215 0 215 0 2 393 3 392
203 3 202 2 0 125 0 125 -625 0 -625 0 0 -125z"/>
<path d="M3265 1715 c-128 -23 -219 -85 -265 -181 -33 -68 -34 -207 -3 -275
59 -132 204 -199 428 -199 214 0 355 61 415 181 11 21 20 43 20 49 0 6 -49 10
-136 10 l-136 0 -34 -30 c-39 -34 -83 -44 -160 -38 -58 5 -93 24 -128 72 -30
39 -30 143 0 182 35 48 70 67 128 72 77 6 121 -4 160 -38 l34 -30 136 0 c87 0
136 4 136 10 0 23 -40 87 -77 122 -95 92 -311 131 -518 93z"/>
<path d="M1030 1396 l0 -326 135 0 135 0 0 95 0 95 110 0 c162 0 189 -15 226
-124 l21 -61 259 -3 259 -2 30 55 29 55 207 0 208 0 31 -55 31 -55 136 0 135
0 -19 29 c-10 15 -103 162 -208 325 l-190 297 -125 -3 -124 -3 -200 -312
c-110 -171 -204 -309 -208 -307 -4 3 -10 27 -14 54 -8 59 -35 106 -74 128 -37
21 -37 27 1 42 16 7 42 29 57 48 22 29 27 48 30 108 4 64 1 79 -21 116 -14 25
-42 53 -64 65 -82 46 -148 55 -480 60 l-313 5 0 -326z m562 154 c43 -12 63
-40 53 -77 -9 -38 -55 -51 -205 -54 l-135 -4 -3 73 -3 72 128 0 c70 0 145 -5
165 -10z m907 -109 c28 -48 51 -93 51 -100 0 -7 -35 -11 -110 -11 -60 0 -110
3 -110 7 0 12 105 193 112 193 3 0 29 -40 57 -89z"/>
<path d="M3920 1395 l0 -325 135 0 135 0 0 55 0 55 82 54 c48 32 86 52 92 47
6 -4 70 -53 142 -109 l132 -102 172 0 173 0 -232 166 c-128 91 -231 167 -229
169 2 2 106 73 232 159 l229 156 -174 0 -174 0 -218 -150 c-121 -83 -221 -150
-223 -150 -2 0 -4 68 -4 150 l0 150 -135 0 -135 0 0 -325z"/>
<path fill="red" d="M3693 971 c-68 -43 -91 -122 -53 -188 27 -50 66 -73 120 -73 83 0
140 56 140 138 0 78 -50 132 -129 139 -34 3 -54 -1 -78 -16z"/>
<path d="M713 639 c-126 -21 -231 -86 -273 -170 -42 -82 -43 -225 -2 -305 28
-55 87 -108 152 -138 53 -25 61 -26 260 -26 168 0 214 3 252 17 76 27 139 81
173 148 27 53 30 68 30 149 -1 138 -45 217 -154 275 -102 54 -287 75 -438 50z
m253 -185 c54 -40 69 -70 69 -139 0 -102 -53 -156 -159 -163 -78 -5 -127 10
-160 49 -72 85 -50 213 44 262 49 25 168 20 206 -9z"/>
<path d="M1360 320 l0 -320 135 0 135 0 2 216 3 217 180 -217 180 -216 162 0
163 0 0 320 0 320 -135 0 -135 0 -2 -217 -3 -217 -180 217 -180 216 -162 0
-163 1 0 -320z"/>
<path fill="red" d="M2933 628 c-6 -7 -91 -139 -190 -293 -98 -154 -187 -292 -197 -307
l-18 -28 133 0 134 0 27 50 28 50 209 0 210 0 28 -50 28 -50 132 0 133 0 -50
78 c-27 42 -118 185 -203 317 l-154 240 -120 3 c-88 2 -123 -1 -130 -10z m196
-283 l51 -90 -60 -3 c-33 -2 -87 -2 -120 0 l-59 3 57 102 c43 78 60 99 68 90
7 -7 35 -52 63 -102z"/>
<path fill="red" d="M3620 320 l0 -320 135 0 135 0 0 320 0 320 -135 0 -135 0 0 -320z"/>
<path fill="red" d="M3980 320 l0 -320 135 0 135 0 0 90 0 90 118 0 c95 0 124 -3 152 -19
34 -18 37 -23 81 -138 8 -22 13 -23 132 -23 l124 0 -14 68 c-16 77 -33 107
-74 130 -16 10 -29 19 -29 22 0 3 18 16 40 30 51 31 80 89 80 158 0 68 -19
111 -64 148 -77 64 -216 84 -593 84 l-223 0 0 -320z m575 146 c37 -16 56 -57
38 -85 -20 -32 -64 -43 -204 -48 l-139 -6 0 77 0 76 135 0 c95 0 146 -4 170
-14z"/>
</g>
</svg>
